PathFileType	4	(X/Y/Z)	C:\Users\Basilio\Documents\Thesis Gigler\squatting_fais\c3dfiles\058\SLS_back_pre5\markers_experimental.trc
DataRate	CameraRate	NumFrames	NumMarkers	Units	OrigDataRate	OrigDataStartFrame	OrigNumFrames
200.000000	200.000000	4	61	mm	200.000000	578	1156
Frame#	Time	FHD			LBHD			RBHD			C7			T10			CLAV			LSHO			LUUPA			LMUPA			LDUPA			LLEP			LMEP			LUL			LRFIN			RSHO			RUPA1			RMUPA			RDUPA			RLEP			RMEP			RUL			RUFIN			LASI			RASI			USACR			LSACR			RSACR			LTHI1			LTHI2			LTHI3			LTHI4			LLFC			LMFC			LTIB1			LTIB3			LTIB4			LLMAL			LMMAL			LHEE			LMT1			LMT5			RTHI			RTHI2			RTHI3			RTHI4			RLFC			RMFC			RTIB1			RTIB2			RTIB3			RTIB4			RLMAL			RMMAL			RHEE			RMT1			RMT2			RMT5			LTIB2			LMT2			LRAD			RRAD			
		X1	Y1	Z1	X2	Y2	Z2	X3	Y3	Z3	X4	Y4	Z4	X5	Y5	Z5	X6	Y6	Z6	X7	Y7	Z7	X8	Y8	Z8	X9	Y9	Z9	X10	Y10	Z10	X11	Y11	Z11	X12	Y12	Z12	X13	Y13	Z13	X14	Y14	Z14	X15	Y15	Z15	X16	Y16	Z16	X17	Y17	Z17	X18	Y18	Z18	X19	Y19	Z19	X20	Y20	Z20	X21	Y21	Z21	X22	Y22	Z22	X23	Y23	Z23	X24	Y24	Z24	X25	Y25	Z25	X26	Y26	Z26	X27	Y27	Z27	X28	Y28	Z28	X29	Y29	Z29	X30	Y30	Z30	X31	Y31	Z31	X32	Y32	Z32	X33	Y33	Z33	X34	Y34	Z34	X35	Y35	Z35	X36	Y36	Z36	X37	Y37	Z37	X38	Y38	Z38	X39	Y39	Z39	X40	Y40	Z40	X41	Y41	Z41	X42	Y42	Z42	X43	Y43	Z43	X44	Y44	Z44	X45	Y45	Z45	X46	Y46	Z46	X47	Y47	Z47	X48	Y48	Z48	X49	Y49	Z49	X50	Y50	Z50	X51	Y51	Z51	X52	Y52	Z52	X53	Y53	Z53	X54	Y54	Z54	X55	Y55	Z55	X56	Y56	Z56	X57	Y57	Z57	X58	Y58	Z58	X59	Y59	Z59	X60	Y60	Z60	X61	Y61	Z61	

579	2.89	-139.7655334472657	1565.229614257813	-619.3719482421876	-295.9272766113282	1517.819458007813	-695.6553344726564	-124.6339721679688	1570.67529296875	-761.6929321289064	-320.2528991699219	1376.986083984375	-710.3052978515626	-412.2372131347657	1096.882690429688	-724.6917114257814	-177.25341796875	1303.428955078125	-688.4071044921876	-173.350341796875	1364.473876953125	-834.6766357421877	-18.92173957824707	1316.667358398438	-939.586853027344	2.811128377914429	1352.526245117188	-910.4343872070315	49.3763999938965	1316.915405273438	-925.5813598632815	123.7383804321289	1322.207153320313	-906.1626586914065	128.3537292480469	1264.70458984375	-872.7666015625002	390.0302734375001	1365.805786132813	-877.1564941406252	480.9101867675782	1378.245361328125	-792.5203857421877	-198.3328704833985	1368.31201171875	-545.2191162109376	-46.25446319580079	1298.473510742188	-434.7413330078126	-26.09214210510255	1337.240234375	-459.5502929687501	21.86508560180664	1310.999267578125	-436.2806396484376	90.80559539794923	1308.84765625	-445.1764526367189	102.4351272583008	1251.03759765625	-496.6853637695314	354.2849426269532	1375.54296875	-448.9973754882814	443.1286010742189	1405.484497070313	-517.2981567382814	-299.2004089355469	842.812438964844	-839.2022094726565	-312.5010375976563	869.1018676757815	-602.5998535156251	-463.7343139648439	991.1267700195315	-730.2283935546876	-477.977996826172	960.5451660156252	-756.6493530273439	-481.5577087402345	965.242370605469	-698.8416137695314	-339.9350891113282	590.4298095703126	-940.4629516601565	-303.2133789062501	513.1969604492189	-946.4973754882815	-261.9952087402344	510.9431457519532	-917.3169555664065	-330.7014160156251	457.7770080566407	-947.9963989257815	-343.6782836914063	381.0222778320313	-944.0872192382815	-335.2813110351563	346.0018005371094	-816.8500976562502	-436.208221435547	287.0937194824219	-922.8298950195315	-484.4044494628907	303.7911071777344	-953.9649047851565	-570.2168579101564	282.0214233398438	-926.4278564453127	-765.1826171875001	323.6072998046876	-932.798034667969	-744.5686645507814	276.2953796386719	-854.8621215820315	-746.0329589843751	374.7470397949219	-869.322448730469	-869.7910156250002	193.1096191406251	-853.040222167969	-897.793884277344	255.2689056396485	-936.8779907226565	-340.8133850097657	695.4415283203126	-535.5018920898439	-276.4880676269532	674.9893188476564	-540.6358032226564	-249.8061676025391	693.3235473632814	-544.0083618164064	-253.6144104003907	597.1203002929689	-563.4935302734376	-161.7235870361328	465.9226989746095	-601.1363525390626	-139.4579772949219	479.7791137695314	-733.1283569335939	-192.0685577392579	298.9146423339844	-718.4932250976564	-259.4048156738282	235.6743621826172	-655.9753417968751	-233.3395385742188	222.1945953369141	-693.6380004882814	-263.9144287109376	193.5331420898438	-733.3073730468751	-362.6497192382813	111.9807434082032	-697.5969238281251	-329.7292175292969	139.7005004882813	-781.7749633789065	-437.1913146972657	103.1220474243164	-763.6277465820314	-226.1653442382813	61.89104461669923	-772.2229003906252	-224.522445678711	57.19342422485353	-720.9808349609376	-273.4257202148438	25.073881149292	-670.8328857421876	-485.9765930175782	347.4553833007813	-961.1221313476565	-888.0184326171877	195.0353240966797	-894.2243652343752	384.3262023925782	1341.097290039063	-799.483093261719	nan	nan	nan	
580	2.895	-139.513427734375	1564.644409179688	-619.3895874023439	-295.6465148925782	1517.076904296875	-695.8239746093751	-124.3954238891602	1569.928344726563	-761.8010253906251	-320.0252075195313	1376.551025390625	-710.3367919921876	-412.3650207519532	1096.400756835938	-724.6190185546876	-177.2220916748047	1302.81982421875	-688.4028320312501	-173.2094268798828	1363.766479492188	-834.7014770507815	-18.64938735961914	1315.786499023438	-939.6802978515627	3.035503149032594	1351.893310546875	-910.4748535156252	49.69628906250001	1316.072875976563	-925.7357177734377	124.0660781860352	1321.626586914063	-906.1923828125002	128.5483093261719	1264.176513671875	-872.766540527344	390.358123779297	1365.1337890625	-877.2806396484377	480.9876403808595	1377.4443359375	-792.682312011719	-198.1808776855469	1367.487670898438	-545.4294433593751	-46.17748260498048	1297.626098632813	-434.6966857910157	-25.89171028137208	1336.346069335938	-459.576385498047	21.94085311889649	1310.396484375	-436.2475585937501	90.95193481445314	1308.151489257813	-445.0655212402345	102.3035125732422	1250.207275390625	-496.541229248047	354.9183654785157	1374.944946289063	-449.0951538085939	443.132293701172	1404.440185546875	-517.2586669921876	-300.6350708007813	841.8232421875002	-839.6862792968752	-312.8377075195313	868.645935058594	-602.6242675781251	-463.7522888183595	990.7919921875002	-730.3490600585939	-477.9908752441407	959.9792480468752	-756.7150878906251	-481.6004638671876	964.8763427734377	-698.8337402343751	-339.9401245117188	589.9506835937501	-940.425720214844	-302.9767150878907	512.5853271484376	-946.4586181640627	-261.8271179199219	510.6688537597657	-917.2441406250002	-330.5190124511719	457.2749633789064	-947.9344482421877	-343.3216247558594	380.5009460449219	-944.115173339844	-335.2878417968751	345.3970947265626	-816.8518066406252	-435.7425842285157	286.3449401855469	-923.1594848632815	-484.384490966797	303.3565063476563	-954.0419921875002	-569.9940185546876	281.6553955078126	-926.703308105469	-764.8519897460939	322.9176025390626	-933.2476196289065	-744.4060058593751	275.8854064941407	-855.143005371094	-745.7763061523439	374.2237854003907	-869.466979980469	-869.5878906250002	192.037094116211	-853.5383300781252	-897.7089843750002	254.6707153320313	-937.115417480469	-340.7549438476563	695.1451416015626	-535.4856567382814	-276.2771911621094	674.5737915039064	-540.7610473632814	-249.7724304199219	693.0189208984376	-544.3681640625001	-253.5636596679688	596.8020629882814	-563.5679931640626	-161.1767578125	465.7969970703126	-601.4152221679689	-139.16748046875	479.6743164062501	-733.4792480468751	-191.7021636962891	298.8555908203126	-718.5322265625001	-259.2279663085938	235.6636047363282	-655.9822998046876	-233.2739257812501	222.1145019531251	-693.7178955078126	-263.8507385253907	193.3864440917969	-733.4353637695314	-362.5880737304688	112.0061874389649	-697.6784057617189	-329.7598876953126	139.542709350586	-781.7998046875002	-437.1881408691407	103.0847778320313	-763.6334838867189	-226.1385955810547	61.92195892333986	-772.105895996094	-224.5161743164063	57.25608444213869	-720.9797973632814	-273.3727722167969	25.09211540222169	-670.8551635742189	-486.0127868652345	346.9270935058594	-961.1562500000002	-887.7581176757815	194.292953491211	-894.711120605469	384.8919372558595	1340.885009765625	-799.3966064453127	nan	nan	nan	
581	2.9	-139.095199584961	1563.656494140625	-619.5023803710939	-295.2290954589844	1516.608276367188	-695.9933471679689	-124.0361938476563	1569.272216796875	-761.9232788085939	-319.9642028808594	1375.786010742188	-710.3874511718751	-412.4541625976564	1095.875366210938	-724.5724487304689	-176.9737701416016	1302.06884765625	-688.4196777343751	-172.8695373535157	1363.155639648438	-834.7213134765627	-18.41657257080078	1315.06787109375	-939.736755371094	3.250057935714723	1351.157348632813	-910.5516357421877	49.90663146972658	1315.34326171875	-925.6921997070315	124.2560272216797	1320.990966796875	-906.2327880859377	128.7799072265625	1263.021606445313	-872.7402954101565	390.6861572265626	1364.546264648438	-877.4199218750002	481.3950195312501	1376.781372070313	-792.811950683594	-198.1494293212891	1367.033813476563	-545.5422973632814	-45.99388885498048	1296.737915039063	-434.8358459472657	-26.0294418334961	1335.483154296875	-459.5467224121095	22.11441040039063	1309.633056640625	-436.3273315429689	90.98069000244142	1307.423706054688	-444.851531982422	102.670524597168	1249.269409179688	-496.662078857422	355.0565185546876	1373.945068359375	-448.7769775390626	443.496551513672	1403.428100585938	-517.1699829101564	-300.2343750000001	841.4314575195315	-839.4620361328127	-312.5958557128907	868.2644042968752	-602.6711425781251	-463.8575134277345	990.4135742187502	-730.4304809570314	-478.194549560547	959.466247558594	-756.6987304687501	-481.7284240722657	964.352966308594	-698.8402709960939	-339.8939819335938	589.4006347656251	-940.4093017578127	-302.9473571777344	511.9242248535157	-946.430358886719	-261.6446533203126	510.2014770507814	-917.1190185546877	-330.3877258300782	456.896697998047	-947.9055175781252	-343.1408691406251	380.0376281738282	-944.0779418945315	-335.2275695800782	344.7789611816407	-816.896667480469	-435.6532287597657	285.2801818847657	-922.9454345703127	-484.2945556640626	302.9960937500001	-954.1132812500002	-565.0297851562501	282.2096557617188	-931.7141113281252	-764.7884521484376	322.4399108886719	-933.476501464844	-744.3184204101564	275.2023315429688	-855.5066528320315	-745.7493286132814	373.5480957031251	-869.613220214844	-869.508239746094	191.2320251464844	-854.1316528320315	-897.0206298828127	253.6846466064454	-937.629089355469	-340.4459533691407	694.7530517578126	-535.6093750000001	-276.3626098632813	674.0333862304689	-540.7774658203126	-249.7336730957032	692.8361816406251	-544.3615722656251	-253.4212493896485	596.4088745117189	-563.6396484375001	-160.6455078125	465.8674926757814	-601.6494140625001	-138.7398223876953	479.577362060547	-733.8553466796876	-191.6499481201172	298.5959472656251	-718.7217407226564	-258.8828735351563	235.7272491455079	-656.1731567382814	-233.092514038086	221.8471221923829	-693.7319946289064	-263.5953063964844	193.1468200683594	-733.5272827148439	-362.5167541503907	112.0601348876953	-697.7469482421876	-329.7737121582032	139.6618194580078	-781.9155273437502	-437.1953125000001	103.0724105834961	-763.6683959960939	-226.2024688720704	61.81344604492189	-772.2681274414065	-224.548080444336	57.22841262817384	-721.0128173828126	-273.2655639648438	25.11497306823731	-670.9436645507814	-485.8035888671876	346.6034851074219	-961.2954101562502	-887.336853027344	193.4075164794922	-895.2845458984377	384.9113159179689	1340.111938476563	-799.4871826171877	nan	nan	nan	
582	2.905	-138.5368194580078	1563.41162109375	-619.6678466796876	-295.3556213378907	1516.083984375	-696.0346069335939	-123.7080688476563	1568.547485351563	-761.9632568359376	-319.7391662597657	1375.419067382813	-710.4501342773439	-412.4692382812501	1095.38623046875	-724.7692871093751	-176.6690979003907	1301.237670898438	-688.4371948242189	-172.7591552734375	1362.500244140625	-834.8020019531252	-18.38300514221192	1314.330078125	-939.7085571289065	3.397564411163331	1350.358764648438	-910.5622558593752	50.03941345214845	1314.76416015625	-925.7615356445315	124.3396835327149	1320.353149414063	-906.2859497070315	128.8391571044922	1262.989013671875	-872.8799438476565	390.6670227050782	1363.851928710938	-877.4935302734377	481.243377685547	1376.25732421875	-792.9096679687502	-197.9901580810547	1366.439575195313	-545.5567016601564	-45.96569442749024	1295.923583984375	-434.822723388672	-25.85100555419923	1334.822875976563	-459.4101867675782	22.09451866149903	1308.505126953125	-436.2730712890626	90.99031829833986	1306.438598632813	-445.0996093750001	102.5831756591797	1248.548583984375	-496.6954040527345	355.1818847656251	1372.85986328125	-448.7991638183595	443.4556579589845	1402.519165039063	-516.9977416992189	-300.3652343750001	840.8742675781252	-839.4743652343752	-312.5790710449219	867.8040161132815	-602.6523437500001	-463.9760742187501	989.7805175781252	-730.3499145507814	-478.358856201172	959.1307373046877	-756.6654052734376	-481.8533630371095	963.7796630859377	-698.7593383789064	-339.8467407226563	588.8080444335939	-940.2984619140627	-302.7426757812501	511.5678100585939	-946.4199829101565	-261.5110473632813	509.6963500976564	-917.0784301757815	-330.3123779296876	456.3226318359376	-947.8701782226565	-343.0710144042969	379.5139465332032	-944.1292114257815	-335.2992553710938	344.3617553710938	-816.8161621093752	-435.4410095214845	285.2684020996094	-923.5162353515627	-483.9418945312501	302.4193115234376	-954.2544555664065	-564.9885253906251	281.5895690917969	-931.8544921875002	-764.5494384765626	321.6756896972657	-933.746520996094	-744.3081665039064	274.2346496582032	-855.7084960937502	-745.7615356445314	372.9025268554688	-869.913513183594	-869.374694824219	190.7993927001953	-854.6586914062502	-896.4902954101565	253.1188201904297	-938.2570800781252	-340.3514404296876	694.3822021484376	-535.6578979492189	-276.2346496582032	673.6338500976564	-540.8464355468751	-249.5538787841797	692.2100830078126	-544.6321411132814	-253.1521453857422	596.2302856445314	-563.7877197265626	-160.1726989746094	465.7973632812501	-602.0005493164064	-138.3384246826172	479.4841308593751	-734.1456298828126	-191.5264434814453	298.5131835937501	-718.8803100585939	-258.8117675781251	235.6632385253907	-656.2333374023439	-233.0160369873047	221.8973693847657	-693.9101562500001	-263.3941345214844	192.7730865478516	-733.6747436523439	-362.5440368652344	112.0187149047852	-697.8143310546876	-329.6784057617188	139.6119079589844	-782.0969238281252	-437.2262573242189	103.0785064697266	-763.6974487304689	-226.3924102783204	61.52061843872072	-772.6074829101565	-224.5239715576172	57.22463607788087	-721.0485839843751	-273.4489746093751	25.0324878692627	-671.1230468750001	-485.7443847656251	346.3241577148438	-961.4395141601565	-887.0478515625002	192.8444061279297	-895.8721313476565	385.1882934570314	1339.340576171875	-799.6380615234377	nan	nan	nan	
